<svg width="247" height="76" viewBox="0 0 247 76" fill="none" xmlns="http://www.w3.org/2000/svg">
<rect x="6" y="7" width="235" height="62" fill="black"/>
<rect x="1" y="1" width="245" height="74" stroke="black" stroke-width="2"/>
<path d="M32.9922 27.2812V54H25.9844V27.2812H16.9375V22.125H42.0156V27.2812H32.9922ZM63.2266 47.3438H51.7188L49.5625 54H42.6719L53.6641 22.125H61.2812L72.2969 54H65.4062L63.2266 47.3438ZM53.3828 42.1875H61.5625L57.4609 29.625L53.3828 42.1875ZM93.3203 37.1484L101.758 22.125H109.609V54H102.602V42.0703L103.211 31.0312L95.4062 45.1406H91.2109L83.3125 30.8203L83.9453 41.8359V54H76.9609V22.125H84.8828L93.3203 37.1484ZM116.57 22.125H127.516C129.344 22.125 130.969 22.3281 132.391 22.7344C133.828 23.1406 135.047 23.7188 136.047 24.4688C137.047 25.2188 137.805 26.1172 138.32 27.1641C138.852 28.2109 139.117 29.375 139.117 30.6562C139.117 31.5625 138.992 32.3828 138.742 33.1172C138.508 33.8516 138.203 34.5078 137.828 35.0859C137.469 35.6484 137.07 36.1406 136.633 36.5625C136.195 36.9844 135.773 37.3359 135.367 37.6172C137.258 38.1484 138.727 39.0391 139.773 40.2891C140.82 41.5234 141.344 43.0938 141.344 45C141.344 46.3438 141.062 47.5703 140.5 48.6797C139.938 49.7891 139.125 50.7422 138.062 51.5391C137.016 52.3203 135.742 52.9297 134.242 53.3672C132.742 53.7891 131.055 54 129.18 54H116.57V22.125ZM123.578 40.1953V48.6094H128.664C129.539 48.6094 130.336 48.5312 131.055 48.375C131.773 48.2031 132.383 47.9531 132.883 47.625C133.398 47.2969 133.797 46.875 134.078 46.3594C134.359 45.8438 134.5 45.2344 134.5 44.5312C134.5 43.1094 134.062 42.0312 133.188 41.2969C132.312 40.5625 131.023 40.1953 129.32 40.1953H123.578ZM123.578 27.5156V35.3672H130.844C131.156 34.9297 131.445 34.3672 131.711 33.6797C131.977 32.9922 132.109 32.2031 132.109 31.3125C132.109 30.0625 131.68 29.1172 130.82 28.4766C129.977 27.8359 128.75 27.5156 127.141 27.5156H123.578ZM165.414 47.3438H153.906L151.75 54H144.859L155.852 22.125H163.469L174.484 54H167.594L165.414 47.3438ZM155.57 42.1875H163.75L159.648 29.625L155.57 42.1875ZM179.148 22.125H186.133V22.1484L186.156 22.125L199.773 43.6172V22.125H206.781V54H199.773L186.133 32.4609V54H179.148V22.125ZM212.781 54V50.0156H216.789V26.1094H212.781V22.125H227.805V26.1094H223.773V50.0156H227.805V54H212.781Z" fill="white"/>
</svg>
