<svg width="247" height="76" viewBox="0 0 247 76" fill="none" xmlns="http://www.w3.org/2000/svg">
<rect x="6" y="7" width="235" height="62" fill="white"/>
<rect x="1" y="1" width="245" height="74" stroke="white" stroke-width="2"/>
<path d="M32.9922 27.2812V54H25.9844V27.2812H16.9375V22.125H42.0156V27.2812H32.9922ZM63.2266 47.3438H51.7188L49.5625 54H42.6719L53.6641 22.125H61.2812L72.2969 54H65.4062L63.2266 47.3438ZM53.3828 42.1875H61.5625L57.4609 29.625L53.3828 42.1875ZM93.3203 37.1484L101.758 22.125H109.609V54H102.602V42.0703L103.211 31.0312L95.4062 45.1406H91.2109L83.3125 30.8203L83.9453 41.8359V54H76.9609V22.125H84.8828L93.3203 37.1484ZM116.57 22.125H127.516C129.344 22.125 130.969 22.3281 132.391 22.7344C133.828 23.1406 135.047 23.7188 136.047 24.4688C137.047 25.2188 137.805 26.1172 138.32 27.1641C138.852 28.2109 139.117 29.375 139.117 30.6562C139.117 31.5625 138.992 32.3828 138.742 33.1172C138.508 33.8516 138.203 34.5078 137.828 35.0859C137.469 35.6484 137.07 36.1406 136.633 36.5625C136.195 36.9844 135.773 37.3359 135.367 37.6172C137.258 38.1484 138.727 39.0391 139.773 40.2891C140.82 41.5234 141.344 43.0938 141.344 45C141.344 46.3438 141.062 47.5703 140.5 48.6797C139.938 49.7891 139.125 50.7422 138.062 51.5391C137.016 52.3203 135.742 52.9297 134.242 53.3672C132.742 53.7891 131.055 54 129.18 54H116.57V22.125ZM123.578 40.1953V48.6094H128.664C129.539 48.6094 130.336 48.5312 131.055 48.375C131.773 48.2031 132.383 47.9531 132.883 47.625C133.398 47.2969 133.797 46.875 134.078 46.3594C134.359 45.8438 134.5 45.2344 134.5 44.5312C134.5 43.1094 134.062 42.0312 133.188 41.2969C132.312 40.5625 131.023 40.1953 129.32 40.1953H123.578ZM123.578 27.5156V35.3672H130.844C131.156 34.9297 131.445 34.3672 131.711 33.6797C131.977 32.9922 132.109 32.2031 132.109 31.3125C132.109 30.0625 131.68 29.1172 130.82 28.4766C129.977 27.8359 128.75 27.5156 127.141 27.5156H123.578ZM165.414 47.3438H153.906L151.75 54H144.859L155.852 22.125H163.469L174.484 54H167.594L165.414 47.3438ZM155.57 42.1875H163.75L159.648 29.625L155.57 42.1875ZM179.148 22.125H186.133V22.1484L186.156 22.125L199.773 43.6172V22.125H206.781V54H199.773L186.133 32.4609V54H179.148V22.125ZM212.781 54V50.0156H216.789V26.1094H212.781V22.125H227.805V26.1094H223.773V50.0156H227.805V54H212.781Z" fill="black"/>
<path d="M32.9922 27.2812V26.7812H32.4922V27.2812H32.9922ZM32.9922 54V54.5H33.4922V54H32.9922ZM25.9844 54H25.4844V54.5H25.9844V54ZM25.9844 27.2812H26.4844V26.7812H25.9844V27.2812ZM16.9375 27.2812H16.4375V27.7812H16.9375V27.2812ZM16.9375 22.125V21.625H16.4375V22.125H16.9375ZM42.0156 22.125H42.5156V21.625H42.0156V22.125ZM42.0156 27.2812V27.7812H42.5156V27.2812H42.0156ZM32.4922 27.2812V54H33.4922V27.2812H32.4922ZM32.9922 53.5H25.9844V54.5H32.9922V53.5ZM26.4844 54V27.2812H25.4844V54H26.4844ZM25.9844 26.7812H16.9375V27.7812H25.9844V26.7812ZM17.4375 27.2812V22.125H16.4375V27.2812H17.4375ZM16.9375 22.625H42.0156V21.625H16.9375V22.625ZM41.5156 22.125V27.2812H42.5156V22.125H41.5156ZM42.0156 26.7812H32.9922V27.7812H42.0156V26.7812ZM63.2266 47.3438L63.7017 47.1881L63.589 46.8438H63.2266V47.3438ZM51.7188 47.3438V46.8438H51.3551L51.2431 47.1897L51.7188 47.3438ZM49.5625 54V54.5H49.9261L50.0382 54.1541L49.5625 54ZM42.6719 54L42.1992 53.837L41.9706 54.5H42.6719V54ZM53.6641 22.125V21.625H53.3076L53.1914 21.962L53.6641 22.125ZM61.2812 22.125L61.7538 21.9617L61.6375 21.625H61.2812V22.125ZM72.2969 54V54.5H72.9987L72.7695 53.8367L72.2969 54ZM65.4062 54L64.9311 54.1556L65.0439 54.5H65.4062V54ZM53.3828 42.1875L52.9072 42.0331L52.6948 42.6875H53.3828V42.1875ZM61.5625 42.1875V42.6875H62.2517L62.0378 42.0323L61.5625 42.1875ZM57.4609 29.625L57.9362 29.4698L57.4596 28.0098L56.9854 29.4706L57.4609 29.625ZM63.2266 46.8438H51.7188V47.8438H63.2266V46.8438ZM51.2431 47.1897L49.0868 53.8459L50.0382 54.1541L52.1944 47.4978L51.2431 47.1897ZM49.5625 53.5H42.6719V54.5H49.5625V53.5ZM43.1446 54.163L54.1367 22.288L53.1914 21.962L42.1992 53.837L43.1446 54.163ZM53.6641 22.625H61.2812V21.625H53.6641V22.625ZM60.8087 22.2883L71.8243 54.1633L72.7695 53.8367L61.7538 21.9617L60.8087 22.2883ZM72.2969 53.5H65.4062V54.5H72.2969V53.5ZM65.8814 53.8444L63.7017 47.1881L62.7514 47.4994L64.9311 54.1556L65.8814 53.8444ZM53.3828 42.6875H61.5625V41.6875H53.3828V42.6875ZM62.0378 42.0323L57.9362 29.4698L56.9856 29.7802L61.0872 42.3427L62.0378 42.0323ZM56.9854 29.4706L52.9072 42.0331L53.8584 42.3419L57.9365 29.7794L56.9854 29.4706ZM93.3203 37.1484L92.8844 37.3933L93.3203 38.1695L93.7563 37.3933L93.3203 37.1484ZM101.758 22.125V21.625H101.465L101.322 21.8802L101.758 22.125ZM109.609 22.125H110.109V21.625H109.609V22.125ZM109.609 54V54.5H110.109V54H109.609ZM102.602 54H102.102V54.5H102.602V54ZM102.602 42.0703L102.102 42.0428L102.102 42.0565V42.0703H102.602ZM103.211 31.0312L103.71 31.0588L102.773 30.7892L103.211 31.0312ZM95.4062 45.1406V45.6406H95.7011L95.8438 45.3826L95.4062 45.1406ZM91.2109 45.1406L90.7731 45.3821L90.9157 45.6406H91.2109V45.1406ZM83.3125 30.8203L83.7503 30.5788L82.8133 30.849L83.3125 30.8203ZM83.9453 41.8359H84.4453V41.8216L84.4445 41.8073L83.9453 41.8359ZM83.9453 54V54.5H84.4453V54H83.9453ZM76.9609 54H76.4609V54.5H76.9609V54ZM76.9609 22.125V21.625H76.4609V22.125H76.9609ZM84.8828 22.125L85.3188 21.8802L85.1755 21.625H84.8828V22.125ZM93.7563 37.3933L102.194 22.3698L101.322 21.8802L92.8844 36.9036L93.7563 37.3933ZM101.758 22.625H109.609V21.625H101.758V22.625ZM109.109 22.125V54H110.109V22.125H109.109ZM109.609 53.5H102.602V54.5H109.609V53.5ZM103.102 54V42.0703H102.102V54H103.102ZM103.101 42.0979L103.71 31.0588L102.712 31.0037L102.102 42.0428L103.101 42.0979ZM102.773 30.7892L94.9687 44.8986L95.8438 45.3826L103.648 31.2733L102.773 30.7892ZM95.4062 44.6406H91.2109V45.6406H95.4062V44.6406ZM91.6488 44.8991L83.7503 30.5788L82.8747 31.0618L90.7731 45.3821L91.6488 44.8991ZM82.8133 30.849L83.4461 41.8646L84.4445 41.8073L83.8117 30.7916L82.8133 30.849ZM83.4453 41.8359V54H84.4453V41.8359H83.4453ZM83.9453 53.5H76.9609V54.5H83.9453V53.5ZM77.4609 54V22.125H76.4609V54H77.4609ZM76.9609 22.625H84.8828V21.625H76.9609V22.625ZM84.4469 22.3698L92.8844 37.3933L93.7563 36.9036L85.3188 21.8802L84.4469 22.3698ZM116.57 22.125V21.625H116.07V22.125H116.57ZM132.391 22.7344L132.253 23.2151L132.255 23.2155L132.391 22.7344ZM138.32 27.1641L137.872 27.385L137.874 27.3903L138.32 27.1641ZM138.742 33.1172L138.269 32.956L138.266 32.9652L138.742 33.1172ZM137.828 35.0859L137.409 34.8138L137.407 34.8167L137.828 35.0859ZM135.367 37.6172L135.083 37.2061L134.209 37.811L135.232 38.0985L135.367 37.6172ZM139.773 40.2891L139.39 40.6101L139.392 40.6125L139.773 40.2891ZM138.062 51.5391L138.362 51.9398L138.363 51.9391L138.062 51.5391ZM134.242 53.3672L134.378 53.8485L134.382 53.8472L134.242 53.3672ZM116.57 54H116.07V54.5H116.57V54ZM123.578 40.1953V39.6953H123.078V40.1953H123.578ZM123.578 48.6094H123.078V49.1094H123.578V48.6094ZM131.055 48.375L131.161 48.8637L131.171 48.8613L131.055 48.375ZM132.883 47.625L132.614 47.2031L132.608 47.207L132.883 47.625ZM123.578 27.5156V27.0156H123.078V27.5156H123.578ZM123.578 35.3672H123.078V35.8672H123.578V35.3672ZM130.844 35.3672V35.8672H131.101L131.251 35.6578L130.844 35.3672ZM130.82 28.4766L130.518 28.8748L130.521 28.8774L130.82 28.4766ZM116.57 22.625H127.516V21.625H116.57V22.625ZM127.516 22.625C129.308 22.625 130.885 22.8242 132.253 23.2151L132.528 22.2536C131.052 21.832 129.38 21.625 127.516 21.625V22.625ZM132.255 23.2155C133.644 23.6082 134.805 24.1621 135.747 24.8687L136.347 24.0688C135.289 23.2754 134.012 22.673 132.527 22.2532L132.255 23.2155ZM135.747 24.8687C136.689 25.575 137.393 26.4136 137.872 27.385L138.769 26.9431C138.216 25.8208 137.405 24.8625 136.347 24.0688L135.747 24.8687ZM137.874 27.3903C138.367 28.3608 138.617 29.4463 138.617 30.6562H139.617C139.617 29.3037 139.336 28.061 138.766 26.9378L137.874 27.3903ZM138.617 30.6562C138.617 31.5167 138.499 32.2815 138.269 32.9561L139.216 33.2783C139.486 32.4842 139.617 31.6083 139.617 30.6562H138.617ZM138.266 32.9652C138.043 33.6621 137.757 34.2772 137.409 34.8138L138.248 35.358C138.649 34.7385 138.972 34.041 139.219 33.2692L138.266 32.9652ZM137.407 34.8167C137.066 35.3494 136.692 35.8104 136.286 36.2026L136.98 36.9224C137.448 36.4708 137.871 35.9475 138.249 35.3551L137.407 34.8167ZM136.286 36.2026C135.863 36.6098 135.462 36.9432 135.083 37.2061L135.652 38.0283C136.085 37.7287 136.527 37.3589 136.98 36.9224L136.286 36.2026ZM135.232 38.0985C137.046 38.6082 138.42 39.4519 139.39 40.6101L140.157 39.968C139.033 38.6262 137.47 37.6887 135.502 37.1358L135.232 38.0985ZM139.392 40.6125C140.349 41.7409 140.844 43.1901 140.844 45H141.844C141.844 42.9974 141.291 41.3059 140.155 39.9657L139.392 40.6125ZM140.844 45C140.844 46.2716 140.578 47.4198 140.054 48.4536L140.946 48.9058C141.547 47.7208 141.844 46.4159 141.844 45H140.844ZM140.054 48.4536C139.529 49.49 138.768 50.385 137.762 51.1391L138.363 51.9391C139.482 51.0994 140.346 50.0882 140.946 48.9058L140.054 48.4536ZM137.763 51.1383C136.773 51.8776 135.556 52.4632 134.102 52.8872L134.382 53.8472C135.929 53.3962 137.258 52.763 138.362 51.9398L137.763 51.1383ZM134.107 52.8859C132.659 53.2931 131.018 53.5 129.18 53.5V54.5C131.091 54.5 132.826 54.285 134.378 53.8485L134.107 52.8859ZM129.18 53.5H116.57V54.5H129.18V53.5ZM117.07 54V22.125H116.07V54H117.07ZM123.078 40.1953V48.6094H124.078V40.1953H123.078ZM123.578 49.1094H128.664V48.1094H123.578V49.1094ZM128.664 49.1094C129.568 49.1094 130.401 49.0287 131.161 48.8636L130.948 47.8864C130.27 48.0338 129.51 48.1094 128.664 48.1094V49.1094ZM131.171 48.8613C131.933 48.679 132.599 48.4094 133.157 48.043L132.608 47.207C132.167 47.4969 131.614 47.7272 130.938 47.8887L131.171 48.8613ZM133.151 48.0468C133.735 47.6752 134.194 47.1917 134.517 46.5988L133.639 46.1199C133.4 46.5583 133.062 46.9185 132.614 47.2032L133.151 48.0468ZM134.517 46.5988C134.846 45.9965 135 45.3016 135 44.5312H134C134 45.1672 133.873 45.691 133.639 46.1199L134.517 46.5988ZM135 44.5312C135 43.001 134.524 41.766 133.509 40.9139L132.866 41.6799C133.601 42.2965 134 43.2178 134 44.5312H135ZM133.509 40.9139C132.509 40.0745 131.085 39.6953 129.32 39.6953V40.6953C130.962 40.6953 132.116 41.0505 132.866 41.6799L133.509 40.9139ZM129.32 39.6953H123.578V40.6953H129.32V39.6953ZM123.078 27.5156V35.3672H124.078V27.5156H123.078ZM123.578 35.8672H130.844V34.8672H123.578V35.8672ZM131.251 35.6578C131.595 35.1762 131.902 34.5732 132.177 33.8599L131.245 33.4995C130.989 34.1612 130.718 34.6832 130.437 35.0766L131.251 35.6578ZM132.177 33.8599C132.469 33.1043 132.609 32.2523 132.609 31.3125H131.609C131.609 32.154 131.484 32.8801 131.245 33.4995L132.177 33.8599ZM132.609 31.3125C132.609 29.9344 132.127 28.8272 131.119 28.0757L130.521 28.8774C131.232 29.4072 131.609 30.1906 131.609 31.3125H132.609ZM131.123 28.0783C130.157 27.3453 128.806 27.0156 127.141 27.0156V28.0156C128.694 28.0156 129.796 28.3266 130.518 28.8748L131.123 28.0783ZM127.141 27.0156H123.578V28.0156H127.141V27.0156ZM165.414 47.3438L165.889 47.1881L165.776 46.8438H165.414V47.3438ZM153.906 47.3438V46.8438H153.543L153.431 47.1897L153.906 47.3438ZM151.75 54V54.5H152.114L152.226 54.1541L151.75 54ZM144.859 54L144.387 53.837L144.158 54.5H144.859V54ZM155.852 22.125V21.625H155.495L155.379 21.962L155.852 22.125ZM163.469 22.125L163.941 21.9617L163.825 21.625H163.469V22.125ZM174.484 54V54.5H175.186L174.957 53.8367L174.484 54ZM167.594 54L167.119 54.1556L167.231 54.5H167.594V54ZM155.57 42.1875L155.095 42.0331L154.882 42.6875H155.57V42.1875ZM163.75 42.1875V42.6875H164.439L164.225 42.0323L163.75 42.1875ZM159.648 29.625L160.124 29.4698L159.647 28.0098L159.173 29.4706L159.648 29.625ZM165.414 46.8438H153.906V47.8438H165.414V46.8438ZM153.431 47.1897L151.274 53.8459L152.226 54.1541L154.382 47.4978L153.431 47.1897ZM151.75 53.5H144.859V54.5H151.75V53.5ZM145.332 54.163L156.324 22.288L155.379 21.962L144.387 53.837L145.332 54.163ZM155.852 22.625H163.469V21.625H155.852V22.625ZM162.996 22.2883L174.012 54.1633L174.957 53.8367L163.941 21.9617L162.996 22.2883ZM174.484 53.5H167.594V54.5H174.484V53.5ZM168.069 53.8444L165.889 47.1881L164.939 47.4994L167.119 54.1556L168.069 53.8444ZM155.57 42.6875H163.75V41.6875H155.57V42.6875ZM164.225 42.0323L160.124 29.4698L159.173 29.7802L163.275 42.3427L164.225 42.0323ZM159.173 29.4706L155.095 42.0331L156.046 42.3419L160.124 29.7794L159.173 29.4706ZM179.148 22.125V21.625H178.648V22.125H179.148ZM186.133 22.125H186.633V21.625H186.133V22.125ZM186.133 22.1484H185.633V23.3555L186.486 22.502L186.133 22.1484ZM186.156 22.125L186.579 21.8574L186.244 21.3298L185.803 21.7714L186.156 22.125ZM199.773 43.6172L199.351 43.8848L200.273 45.3406V43.6172H199.773ZM199.773 22.125V21.625H199.273V22.125H199.773ZM206.781 22.125H207.281V21.625H206.781V22.125ZM206.781 54V54.5H207.281V54H206.781ZM199.773 54L199.351 54.2675L199.498 54.5H199.773V54ZM186.133 32.4609L186.555 32.1934L185.633 30.7369V32.4609H186.133ZM186.133 54V54.5H186.633V54H186.133ZM179.148 54H178.648V54.5H179.148V54ZM179.148 22.625H186.133V21.625H179.148V22.625ZM185.633 22.125V22.1484H186.633V22.125H185.633ZM186.486 22.502L186.51 22.4786L185.803 21.7714L185.779 21.7949L186.486 22.502ZM185.734 22.3926L199.351 43.8848L200.196 43.3496L186.579 21.8574L185.734 22.3926ZM200.273 43.6172V22.125H199.273V43.6172H200.273ZM199.773 22.625H206.781V21.625H199.773V22.625ZM206.281 22.125V54H207.281V22.125H206.281ZM206.781 53.5H199.773V54.5H206.781V53.5ZM200.196 53.7325L186.555 32.1934L185.71 32.7285L199.351 54.2675L200.196 53.7325ZM185.633 32.4609V54H186.633V32.4609H185.633ZM186.133 53.5H179.148V54.5H186.133V53.5ZM179.648 54V22.125H178.648V54H179.648ZM212.781 54H212.281V54.5H212.781V54ZM212.781 50.0156V49.5156H212.281V50.0156H212.781ZM216.789 50.0156V50.5156H217.289V50.0156H216.789ZM216.789 26.1094H217.289V25.6094H216.789V26.1094ZM212.781 26.1094H212.281V26.6094H212.781V26.1094ZM212.781 22.125V21.625H212.281V22.125H212.781ZM227.805 22.125H228.305V21.625H227.805V22.125ZM227.805 26.1094V26.6094H228.305V26.1094H227.805ZM223.773 26.1094V25.6094H223.273V26.1094H223.773ZM223.773 50.0156H223.273V50.5156H223.773V50.0156ZM227.805 50.0156H228.305V49.5156H227.805V50.0156ZM227.805 54V54.5H228.305V54H227.805ZM213.281 54V50.0156H212.281V54H213.281ZM212.781 50.5156H216.789V49.5156H212.781V50.5156ZM217.289 50.0156V26.1094H216.289V50.0156H217.289ZM216.789 25.6094H212.781V26.6094H216.789V25.6094ZM213.281 26.1094V22.125H212.281V26.1094H213.281ZM212.781 22.625H227.805V21.625H212.781V22.625ZM227.305 22.125V26.1094H228.305V22.125H227.305ZM227.805 25.6094H223.773V26.6094H227.805V25.6094ZM223.273 26.1094V50.0156H224.273V26.1094H223.273ZM223.773 50.5156H227.805V49.5156H223.773V50.5156ZM227.305 50.0156V54H228.305V50.0156H227.305ZM227.805 53.5H212.781V54.5H227.805V53.5Z" fill="black"/>
</svg>
